<?xml version="1.0" encoding="UTF-8" standalone="no"?>
<!-- Created with Inkscape (http://www.inkscape.org/) -->

<svg
   xmlns:dc="http://purl.org/dc/elements/1.1/"
   xmlns:cc="http://creativecommons.org/ns#"
   xmlns:rdf="http://www.w3.org/1999/02/22-rdf-syntax-ns#"
   xmlns:svg="http://www.w3.org/2000/svg"
   xmlns="http://www.w3.org/2000/svg"
   xmlns:sodipodi="http://sodipodi.sourceforge.net/DTD/sodipodi-0.dtd"
   xmlns:inkscape="http://www.inkscape.org/namespaces/inkscape"
   width="60"
   height="50"
   id="svg2"
   sodipodi:version="0.32"
   inkscape:version="0.48.3.1 r9886"
   sodipodi:docname="141 dokumentu berria"
   inkscape:output_extension="org.inkscape.output.svg.inkscape"
   version="1.1">
  <defs
     id="defs4">
    <clipPath
       clipPathUnits="userSpaceOnUse"
       id="clipPath5060">
      <path
         style="color:#000000;fill:#ffaaaa;fill-opacity:1;fill-rule:nonzero;stroke:none;stroke-width:3;marker:none;visibility:visible;display:inline;overflow:visible;enable-background:accumulate"
         d="m 806.17137,400.29804 242.36733,0 0,40.24549 -242.36733,0 z"
         id="path5062"
         inkscape:connector-curvature="0" />
    </clipPath>
  </defs>
  <sodipodi:namedview
     id="base"
     pagecolor="#ffffff"
     bordercolor="#666666"
     borderopacity="1.0"
     inkscape:pageopacity="0.0"
     inkscape:pageshadow="2"
     inkscape:zoom="5.8831284"
     inkscape:cx="41.090008"
     inkscape:cy="57.37156"
     inkscape:document-units="px"
     inkscape:current-layer="layer1"
     inkscape:window-width="1398"
     inkscape:window-height="1029"
     inkscape:window-x="0"
     inkscape:window-y="19"
     showgrid="false"
     inkscape:snap-page="false"
     showguides="true"
     inkscape:guide-bbox="true"
     inkscape:snap-to-guides="false"
     inkscape:window-maximized="0">
    <sodipodi:guide
       orientation="1,0"
       position="59.832112,53.542941"
       id="guide8186" />
  </sodipodi:namedview>
  <metadata
     id="metadata7">
    <rdf:RDF>
      <cc:Work
         rdf:about="">
        <dc:format>image/svg+xml</dc:format>
        <dc:type
           rdf:resource="http://purl.org/dc/dcmitype/StillImage" />
        <dc:title></dc:title>
      </cc:Work>
    </rdf:RDF>
  </metadata>
  <g
     inkscape:label="Capa 1"
     inkscape:groupmode="layer"
     id="layer1"
     transform="translate(0,-1002.3622)">
    <g
       id="g5054"
       clip-path="url(#clipPath5060)"
       inkscape:export-filename="/home/koxta/proiektuak/bidasoamedia/bidasoamedia/project/assets/imgs/rss.png"
       inkscape:export-xdpi="90"
       inkscape:export-ydpi="90"
       transform="matrix(1.2540388,0,0,1.2540388,-1236.4057,499.42736)">
      <path
         id="rect34777"
         d="m 852.90915,650.05396 30.27156,0 c 1.72308,0 3.11026,1.55835 3.11026,3.49406 l 0,29.50395 c 0,1.93571 -1.38718,3.49407 -3.11026,3.49407 l -30.27156,0 c -1.72308,0 -3.11026,-1.55836 -3.11026,-3.49407 l 0,-29.50395 c 0,-1.93571 1.38718,-3.49406 3.11026,-3.49406 z"
         style="fill:#808000;fill-opacity:1;fill-rule:evenodd;stroke:#1e1e00;stroke-width:3.18969393;stroke-miterlimit:4;stroke-opacity:1"
         transform="matrix(0.96688285,-0.25522059,0.25522059,0.96688285,0,0)"
         inkscape:connector-curvature="0" />
      <path
         transform="matrix(0.28207366,-0.0744568,0.0744568,0.28207366,833.16345,450.43945)"
         d="m 594.97983,97.515488 c 0,6.555232 -5.31407,11.869292 -11.8693,11.869292 -6.55522,0 -11.86929,-5.31406 -11.86929,-11.869292 0,-6.555229 5.31407,-11.869293 11.86929,-11.869293 6.55523,0 11.8693,5.314064 11.8693,11.869293 z"
         sodipodi:ry="11.869292"
         sodipodi:rx="11.869292"
         sodipodi:cy="97.515488"
         sodipodi:cx="583.11053"
         id="path2877"
         style="fill:#1e1e00;fill-opacity:1;fill-rule:evenodd;stroke:none"
         sodipodi:type="arc" />
      <path
         sodipodi:nodetypes="ccccc"
         id="path2902"
         d="m 998.41461,423.30258 1.08225,4.30878 c 7.20264,-1.90452 12.62954,2.16301 14.08744,8.20351 l 4.4582,-1.1768 c -2.5218,-9.7041 -9.2147,-14.03577 -19.62789,-11.33549 z"
         style="fill:#1e1e00;fill-opacity:1;stroke:none"
         inkscape:connector-curvature="0" />
      <path
         style="fill:#1e1e00;fill-opacity:1;stroke:none"
         d="m 996.55487,416.46586 1.17679,4.4582 c 12.30154,-3.20543 19.89224,3.09466 22.53994,13.12561 l 4.4582,-1.1768 c -4.1187,-15.6037 -12.5712,-20.5258 -28.17493,-16.40701 z"
         id="path3679"
         sodipodi:nodetypes="ccccc"
         inkscape:connector-curvature="0" />
    </g>
  </g>
</svg>
